<?xml version="1.0" encoding="UTF-8" standalone="no"?>
<!-- Created with Inkscape (http://www.inkscape.org/) -->

<svg
   version="1.1"
   id="svg1"
   width="870.77344"
   height="111.71538"
   viewBox="0 0 870.77344 111.71538"
   xmlns="http://www.w3.org/2000/svg"
   xmlns:svg="http://www.w3.org/2000/svg">
  <defs
     id="defs1" />
  <g
     id="g1"
     transform="translate(-0.39325192,0.70447074)">
    <path
       style="display:inline;fill:#000000;fill-rule:evenodd;stroke:#000000;stroke-width:1;stroke-dasharray:none;stroke-opacity:0"
       d="m 548.1621,108.85038 c -11.23303,-2.3763 -15.38939,-14.026757 -8.38431,-23.501631 3.57355,-4.833487 3.60295,-4.326897 -0.62163,-10.710666 -4.26224,-6.440686 -4.90364,-6.472041 -16.18943,-0.791404 -39.29867,19.780748 -68.17725,18.540008 -75.92058,-3.261855 -3.43231,-9.663895 -21.27302,-10.318907 -25.00799,-0.918154 -8.72208,21.953106 -35.79913,23.66546 -76.54519,4.840722 -14.7528,-6.815814 -24.34916,-1.443276 -17.49679,9.795615 11.69327,19.178713 -17.79836,33.623373 -42.78263,20.954443 -3.87585,-1.96535 -8.06129,-2.43615 -22,-2.47471 -27.24036,-0.0754 -53.26097,-7.372175 -68.94271,-19.33322 -5.93845,-4.529477 -3.74574,-5.04179 -33.52542,7.833021 C 125.81562,106.38393 121.82426,107.50674 99.333336,108.55847 32.905291,111.6648 0.63818398,93.999652 0.89475709,54.666669 1.1758943,11.567974 31.909135,-5.4213018 95.333336,2.461207 127.68552,6.4820127 144.14526,33.010502 130.66667,59.408638 111.07595,97.777514 30.000001,90.204426 30.000001,50.005634 c 0,-28.485061 44.005204,-42.5937952 67.126687,-21.521831 14.147782,12.893702 4.631492,33.992126 -14.702523,32.59674 -9.126209,-0.658663 -8.696258,-7.674265 0.473537,-7.72679 8.94001,-0.05121 13.936009,-9.117038 9.25473,-16.793798 C 81.147404,18.512972 37.316962,28.617945 37.338318,49.19718 37.373555,83.152045 118.7622,82.306591 127.93104,48.256115 138.59641,8.6479394 53.833581,-8.7757177 19.310915,25.928407 -17.77028,63.204509 24.9113,107.77146 90.223415,99.97333 111.71187,97.407651 127.5308,93.098982 164.66667,79.696906 c 22.27161,-8.03767 20.12474,-6.442637 17.50024,-13.001902 -10.91615,-27.282145 21.09623,-52.122553 58.77454,-45.606842 12.05652,2.084935 12.77467,2.071871 16.8263,-0.306085 15.43531,-9.059201 16.74189,-9.449973 31.51215,-9.424641 28.3234,0.04857 47.22011,16.222225 47.22011,40.415592 0,20.201252 59.44651,36.68544 73.22892,20.305974 6.06672,-7.209887 5.10398,-8.69625 -7.20316,-11.120889 -20.65224,-4.068714 -38.71975,-15.528979 -40.64282,-25.779844 -5.11614,-27.2713419 43.86868,-18.611354 56.87172,10.054308 5.37451,11.848313 4.84436,11.549389 17.98723,10.141907 8.35772,-0.895035 8.35772,-0.895035 11.2505,-8.0224 9.58359,-23.612455 48.29721,-38.3786043 56.51298,-21.555181 6.57801,13.469811 -11.19815,29.487649 -39.13557,35.264486 -10.30933,2.131739 -10.79464,2.392487 -10.0411,5.394854 4.37405,17.427606 27.84784,17.994752 60.6713,1.46587 14.9651,-7.535961 14.72361,-7.248764 15.1949,-18.071133 1.39796,-32.101513 40.42423,-48.92612578 75.1006,-32.376618 8.29711,3.959843 8.61963,4.003809 18.44527,2.514406 36.98553,-5.606383 68.06263,17.022111 62.1489,45.253119 -0.83436,3.983036 -1.37586,7.33628 -1.20334,7.451654 9.25124,6.186841 70.4649,24.906213 89.63066,27.409399 57.50155,7.51012 102.73781,-25.332383 85.53869,-62.102938 -20.77763,-44.4211781 -118.85567,-39.9413202 -118.85567,5.428906 0,23.208332 33.12973,37.032285 66.86499,27.900575 35.48378,-9.60501 27.92238,-43.329482 -9.71495,-43.329482 -24.9636,0 -35.89209,21.687243 -12.49266,24.791287 11.04194,1.464766 10.00055,8.582166 -1.24555,8.512765 -33.18277,-0.204772 -23.04259,-40.333711 10.70147,-42.350188 59.56423,-3.559439 58.1895,58.856987 -1.44663,65.681311 -71.04286,8.129626 -85.37641,-73.327828 -14.66667,-83.3505914 53.45115,-7.5764424 90.66667,14.3162024 90.66667,53.3361664 0,35.547573 -29.0426,53.911259 -85.33334,53.956409 -39.64371,0.0318 -38.60109,0.26249 -79.33333,-17.553635 -28.80077,-12.597343 -26.46144,-12.065304 -31.93176,-7.262296 -14.79363,12.988975 -47.91292,21.753521 -73.4554,19.438921 -7.80224,-0.70702 -10.95188,-0.40819 -15.5331,1.47372 -5.08698,2.08968 -24.8827,6.14211 -28.41308,5.81652 -0.73333,-0.0676 -4.56039,-0.80564 -8.50458,-1.64001 z m -227.55816,-7.73106 c 4.37111,-1.991616 4.56842,-7.62075 0.39607,-11.299742 -3,-2.645263 -3,-2.645263 -14.2089,3.054492 -10.29319,5.234111 -10.94675,5.799331 -8,6.91861 8.16881,3.1028 16.76687,3.62573 21.81283,1.32664 z m 246.24138,0.003 c 6.87042,-2.05843 6.68995,-2.336143 -5.27836,-8.122286 -12.23484,-5.915002 -12.63181,-5.959134 -15.4136,-1.713578 -6.25288,9.543104 4.54211,14.674474 20.69196,9.835864 z M 258.41669,88.333337 c -3.38236,-3.483333 -8.28303,-9.712649 -10.89037,-13.842925 -5.60566,-8.879884 -6.64486,-8.971549 -32.52631,-2.869078 -17.28007,4.074388 -16.95524,3.725421 -8.66409,9.307796 19.82932,13.350965 63.94518,19.62282 52.08077,7.404207 z m 381.38602,2.305949 c 10.15651,-2.740521 26.53735,-11.092046 27.22472,-13.880117 0.46564,-1.888666 -21.07059,-7.386298 -32.36075,-8.260848 -10,-0.774613 -10,-0.774613 -13.86837,6.769918 -2.15451,4.201969 -6.88032,10.234599 -10.66667,13.616315 -7.81293,6.977989 7.0548,7.857258 29.67107,1.754732 z m -347.73972,0.885586 c 18.8805,-6.75204 19.75638,-12.074875 2.98552,-18.143282 -37.18433,-13.454866 -52.49933,1.098874 -18.69422,17.764997 5.16626,2.546998 9.36188,2.648034 15.7087,0.378285 z m 304.51909,-3.468287 c 7.14083,-4.915156 18.0846,-16.698246 18.0846,-19.471568 0,-4.60399 -33.21989,0.838378 -48.88044,8.008013 -8.64348,3.957116 -8.62296,3.497592 -0.39206,8.779344 13.79373,8.85141 21.29069,9.496641 31.1879,2.684211 z M 324.9154,64.702664 c -1.56765,-4.857298 -64.57702,-31.474442 -69.78074,-29.477585 -8.24303,3.163146 -7.51334,22.644726 0.86535,23.103336 19.71465,1.079088 38.96042,5.539146 53.98385,12.510341 7.84042,3.638123 16.88632,-0.07928 14.93154,-6.136092 z m 235.16031,5.350711 c 11.64215,-5.579348 29.49291,-9.835895 46.59097,-11.109704 12.66667,-0.943668 12.66667,-0.943668 12.37161,-7.99483 -0.45968,-10.98547 -3.68943,-16.633529 -8.88805,-15.543067 -21.7442,4.561064 -68.45951,26.89101 -66.04023,31.567272 4.47074,8.641585 4.39272,8.626532 15.9657,3.080329 z m 118.37695,-4.116109 c 5.25771,-11.539406 -0.80006,-23.842539 -14.79712,-30.05248 -6.61837,-2.936309 -39.65553,-5.785752 -39.65553,-3.420274 0,0.406294 0.9,4.194049 2,8.417235 1.1,4.223185 2,9.925272 2,12.671303 0,4.737207 0.25595,5.034059 5,5.799094 12.22088,1.970761 25.67048,4.829869 33.66667,7.156842 4.76667,1.387148 9.02036,2.590096 9.45265,2.673219 0.43229,0.08312 1.48229,-1.3771 2.33333,-3.244939 z M 209.16275,64.054499 c 4.26507,-1.362522 11.29825,-2.857404 15.62929,-3.321959 17.46524,-1.87335 16.5413,-1.394044 16.5413,-8.581047 0,-3.516888 0.878,-9.311704 1.9511,-12.877368 2.45147,-8.145622 3.23242,-7.677634 -12.93637,-7.752199 -26.57046,-0.122532 -40.91483,8.232736 -42.0928,24.518115 -0.93341,12.904273 2.03689,14.042878 20.90748,8.014458 z M 328.00001,47.592375 c 0,-20.499537 -32.57984,-34.873663 -56.10506,-24.753384 -6.59941,2.83899 -6.59941,2.83899 3.08615,7.102191 5.32707,2.34476 18.68557,8.835657 29.68557,14.424216 24.21032,12.300069 23.33334,12.178783 23.33334,3.226977 z m 80.53192,-3.207385 c -9.48454,-13.771125 -28.87252,-22.174148 -37.03407,-16.051079 -7.06422,5.299814 13.10266,20.146276 32.92504,24.238772 10.18637,2.10306 10.61218,1.254587 4.10903,-8.187693 z m 160.52301,-2.757515 c 14.45313,-7.171556 28.07841,-13.685876 30.27841,-14.476267 4,-1.437073 4,-1.437073 -2.66667,-4.561677 -23.38129,-10.958588 -56.66667,4.725274 -56.66667,26.70098 0,7.034199 -1.20603,7.352281 29.05493,-7.663036 z m -92.32224,7.683147 c 26.87794,-9.247368 29.70784,-27.939027 3.10357,-20.499303 -9.6966,2.711596 -20.75908,12.267196 -23.58412,20.371601 -1.85221,5.313545 5.2784,5.358007 20.48055,0.127702 z"
       id="path10" />
  </g>
</svg>
